<?xml version="1.0" encoding="utf-8"?>
<!-- Generator: Adobe Illustrator 27.9.0, SVG Export Plug-In . SVG Version: 6.00 Build 0)  -->
<svg version="1.0" id="Camada_1" xmlns="http://www.w3.org/2000/svg" xmlns:xlink="http://www.w3.org/1999/xlink" x="0px" y="0px"
	 viewBox="0 0 641.1 439.1" enable-background="new 0 0 641.1 439.1" xml:space="preserve">
<g>
	<path fill="#913B33" d="M346.1,149.6c3.2,2.5,6.7,5.3,10.6,8.4c1.7,1.3,3.3,1.9,5.4,1.9c1.5,0,3.3-0.4,5.1-1.2
		c1.5-0.7,3.1-1.6,4.4-2.7c0.4-0.4,1-1,1.5-1.5c0.6-0.7,1.9-2.4,2.8-4.6c0.8-1.9,1.3-3.8,1.3-5.3c0-2-0.6-3.4-1.9-4.8
		c0,0,0-0.1-0.1-0.1c-3.5-3.8-6.5-7.1-9.2-10.2c-5.5-6.3-8.9-10.7-11.2-14.8c-2.9-5-4.3-9.7-4.3-14.5c0-4.8,1.4-9.8,4.5-15.5
		c3-5.7,7.5-11.9,11.9-17.8c2.4-3.2,5-6.7,8-10.6c1.5-2,2.2-3.8,2.2-6c0-1.7-0.4-3.6-1.3-5.4c-0.8-1.6-1.9-3.3-3.1-4.5
		c0,0-0.4-0.4-0.4-0.4c-1.2-1.1-2.8-2.2-4.4-2.9c-1.8-0.8-3.6-1.2-5.3-1.2c-2.2,0-4.2,0.6-6.2,2c-4.2,2.8-7.8,5.3-11.1,7.5
		c0,0-2,1.4-2,1.4c-4.2,2.9-7.8,5.4-11,7.5c-4.3,2.8-7.3,4.3-10.3,5.3c-2.4,0.8-4.7,1.2-6.9,1.2s-4.6-0.4-6.9-1.2
		c-2.1-0.7-4.2-1.7-6.7-3.1c-4.1-2.4-8.8-5.6-14.6-9.7l-1.8-1.3c-3.3-2.2-6.9-4.8-11.1-7.6c-2-1.3-4-1.9-6.2-1.9h0
		c-3.7,0-7.4,2-9.4,3.7l-1.5,1.5c-1,1.2-2,2.8-2.7,4.4c-0.8,1.8-1.2,3.6-1.2,5.1c0,2.1,0.6,3.6,2,5.2c3.4,3.9,6.3,7.4,8.9,10.7
		c0,0,0.1,0.1,0.1,0.1c4.9,6.3,8.2,11.7,10.6,16.7c2.6,5.6,3.8,10.8,3.8,15.9c0,5.1-1.3,10.3-3.8,15.5c-2.3,4.7-5.6,9.5-10.3,15
		c0,0-0.1,0.1-0.1,0.1c-2.7,3.2-5.8,6.5-9.3,10.1c-1.6,1.7-2,3.1-2,4.8c0,1.5,0.5,3.4,1.3,5.2c0.8,1.7,1.9,3.4,3.1,4.7
		c0,0,0.1,0.1,0.2,0.2c0.3,0.3,0.5,0.5,0.7,0.7c1.3,1.3,3,2.4,4.7,3.1c1.8,0.8,3.7,1.3,5.4,1.3c2.1,0,3.8-0.6,5.6-2l2.8-2.2
		c2.8-2.2,5.4-4.2,7.8-6c0,0,0,0,0,0c5.3-4,11-8.1,16.3-11c5.4-2.9,10.2-4.2,14.9-4.2c4.7,0,9.5,1.4,14.8,4.2
		c4.3,2.3,8.9,5.4,15.9,10.8C346,149.5,346,149.5,346.1,149.6 M361.9,171.9c-4.6,0-9.1-1.6-12.8-4.6l-1.3-1c-3.3-2.7-6.3-5-9-7.1
		c0,0-0.1-0.1-0.1-0.1c-6.3-4.9-10.7-7.9-14.3-9.9c-3.6-1.9-6.4-2.8-9.1-2.8c-2.8,0-5.6,0.9-9.3,2.8c-3.6,1.9-8.1,5-14.7,9.9
		c0,0-0.1,0-0.1,0.1c-2.6,1.9-5.4,4.1-8.4,6.5c0,0-2.1,1.6-2.1,1.6c-3.7,2.9-8.1,4.5-12.8,4.5c-3.5,0-7-0.8-10.4-2.4
		c-2.8-1.3-5.5-3.1-7.8-5.1c0,0,0,0-0.1-0.1c-0.3-0.3-0.6-0.6-0.8-0.8c0,0-0.7-0.7-0.7-0.7c-2.1-2.3-3.8-5-5.1-7.8
		c-1.6-3.5-2.4-6.9-2.5-10.3c-0.1-4.9,1.9-9.6,5.4-13.2c3.5-3.5,6.4-6.7,8.9-9.6c0,0,0.1-0.1,0.1-0.1c4-4.7,6.8-8.8,8.6-12.4
		c1.8-3.6,2.6-6.8,2.6-10.2c0-3.4-0.9-6.9-2.7-10.9c-1.9-4.2-4.9-8.9-9.2-14.4c-2.4-3.1-5.2-6.5-8.5-10.3c-3.2-3.7-5-8.3-4.9-13.1
		c0-3.2,0.7-6.6,2.2-9.9c1.2-2.7,2.7-5.2,4.6-7.5c0,0,0.2-0.2,0.2-0.3c0.6-0.7,2.2-2.2,2.2-2.2c0.1,0,0.2-0.2,0.3-0.3
		c3-2.5,9.1-6.6,17.3-6.6c4.6,0,9,1.4,12.9,4c4.2,2.8,7.9,5.4,11.2,7.7l2,1.4c4.3,3,7.7,5.3,10.5,7.2c3.3,2.1,5.8,3.4,7.7,4.1
		c1.2,0.4,2.1,0.6,3.1,0.6c0.9,0,1.9-0.2,3.1-0.6c1.3-0.4,2.8-1.2,4.6-2.2c3.5-2,8.1-5.1,13.9-9.2c0,0,1.8-1.3,1.8-1.3
		c3.3-2.3,7-4.8,11.3-7.6c3.9-2.6,8.3-4,12.8-4c3.5,0,6.9,0.8,10.3,2.3c2.9,1.3,5.5,3,7.7,5.2c0,0,0.7,0.7,0.8,0.7
		c2.2,2.2,4,4.9,5.3,7.8c1.6,3.5,2.4,7,2.4,10.5c0,4.7-1.5,9.2-4.5,13.1c-3,3.9-5.6,7.4-8,10.7c-5.4,7.3-8.8,12.4-10.9,16.3
		c-2.1,4-3.1,7.1-3.1,9.9c0,2.6,0.8,5.2,2.7,8.4c1.9,3.3,5,7.4,9.9,12.9c2.6,3,5.7,6.4,9.1,10.2c3.3,3.5,5,8.1,5,12.9
		c0,3.3-0.8,6.8-2.4,10.2c-1.2,2.7-2.9,5.3-4.8,7.6c0,0.1-0.2,0.2-0.2,0.3c-0.7,0.8-1.5,1.5-2.2,2.2c-0.1,0-0.2,0.2-0.3,0.2
		c-2.2,1.9-4.8,3.5-7.5,4.6c-3.3,1.4-6.6,2.2-9.8,2.2H361.9z"/>
	<path fill="#913B33" d="M261.7,75.6c-4.4,2.5-9.5,5.1-16.9,8.6c-3.7,1.7-6.6,3.9-8.6,6.3c-1.6,2.1-2.5,4.1-2.6,6.4l0,0.7
		c0.1,2.3,0.9,4.6,2.6,6.8c2,2.6,5,5.1,8.8,7.1c7.1,3.7,12.5,6.5,17.2,9.2c8.1,4.6,13.1,8.2,17.5,12.6c4.5,4.5,8.4,10,13,18.3
		c2.3,4.1,4.8,8.9,8.5,16.3c1.8,3.6,4,6.6,6.4,8.5c2,1.6,4.1,2.5,6.2,2.7l0.7,0l1.1,0c2-0.2,4.1-1.1,6.1-2.8
		c2.4-1.9,4.7-4.9,6.5-8.5c3.5-7,6.3-12.2,8.7-16.4c4.8-8.5,8.8-14.1,13.3-18.7c4.4-4.5,9.5-8.3,17.1-12.5
		c4.7-2.6,10.1-5.4,17.3-8.9c0.1,0,0.2-0.1,0.2-0.1c3.5-1.8,6.5-4.1,8.4-6.5c1.7-2.1,2.5-4.3,2.6-6.5V98c-0.1-2.5-0.9-4.7-2.6-6.9
		c-1.9-2.6-5-4.9-8.8-6.9c-6.4-3.2-11.6-5.9-16.1-8.4c-8.4-4.7-14-8.7-18.6-13.3c-4.8-4.8-8.9-10.5-13.6-19.1c-2.5-4.5-5-9.5-8-15.7
		c-1.8-3.7-4-6.6-6.4-8.6c-2.1-1.6-4.2-2.6-6.4-2.8l-0.3,0l-1.6,0c-2,0.2-4.1,1.1-6.1,2.8c-2.4,1.9-4.5,4.9-6.2,8.5
		c-3.2,6.8-5.7,11.7-8,15.8c-4.4,8-8.5,13.8-13.3,18.7C275.2,67,269.6,71.2,261.7,75.6C261.8,75.6,261.7,75.6,261.7,75.6
		 M313.3,191.2c-0.1,0-0.3,0-0.3,0c-4.5-0.4-8.9-2.2-12.8-5.3c-3.8-3.1-7-7.3-9.6-12.5c-3.6-7.3-6.1-12-8.2-15.8
		c-4.1-7.3-7.4-12-11-15.7c-3.6-3.6-7.9-6.7-14.9-10.7c-4.4-2.5-9.6-5.2-16.2-8.7l-0.6-0.3c-5.5-2.8-9.8-6.4-12.9-10.5
		c-3.2-4.2-4.9-9-5-13.8l0-1.4c0-0.1,0-0.3,0-0.4c0.2-4.5,2.1-9,5.2-13c3.1-3.9,7.4-7.1,12.8-9.7c6.9-3.3,12.1-5.9,16.2-8.3
		c0,0,0.1,0,0.1-0.1c6.7-3.8,11.5-7.4,15.5-11.4c4-4.1,7.5-9.1,11.4-16.1c2.2-3.9,4.6-8.7,7.6-15.1c2.5-5.3,5.7-9.5,9.5-12.7
		c3.9-3.2,8.3-5,12.8-5.4c0,0,0.3,0,0.4,0l1.8,0l1.3,0c4.8,0.4,9.3,2.2,13.2,5.4c3.9,3.1,7.1,7.4,9.7,12.7
		c3.4,7.1,5.6,11.5,7.7,15.2c4.1,7.5,7.6,12.4,11.6,16.4c3.9,3.9,8.5,7.2,16,11.3c4.4,2.4,9.5,5,15.7,8.2c5.5,2.8,9.8,6.3,12.9,10.3
		c3.1,4.1,4.8,8.8,5,13.5l0,1.5c-0.2,4.8-2,9.4-5.1,13.5c-3.1,4-7.4,7.3-12.8,10c-7.1,3.5-12.3,6.1-16.8,8.6
		c-6.6,3.7-10.7,6.7-14.3,10.4c-3.7,3.8-7.1,8.6-11.4,16.2c-2.3,4.1-5,9.2-8.4,15.9c-2.6,5.2-5.9,9.4-9.7,12.4
		c-3.9,3.1-8.3,5-12.8,5.4c-0.1,0-0.3,0-0.3,0c0,0-1.7,0-1.8,0L313.3,191.2z"/>
	<path fill="#913B33" d="M34.1,250.7h0.5c5.3-11.1,21.1-16.1,35.2-18.2c3.7-0.5,7.4-0.3,7.4-0.3v12.2c0,5.8-4.4,10.6-10.1,11.3
		c-1.4,0.2-2.9,0.4-4.3,0.8c-12.6,3.9-19.6,13.7-25.6,19.9v76.1c0,4.2,0.5,8.5,5.6,11.9H5.2c5-3.4,5.6-7.7,5.6-11.9V246.8
		c0-4.2-0.5-8.5-5.6-11.9h28.9V250.7z"/>
	<path fill="#913B33" d="M179.3,274c-9.8-7.9-23.3-16.9-36.9-16.9c-26,0-45.4,14.8-45.4,41.7c0,27.7,16.5,43.3,44.8,43.3
		c15.4,0,29.2-7.1,37.4-19.3V274z M200,364.3c-9.4,0-17-7.6-17-16.9h-0.5c-10.1,13.2-25.5,21.1-43,21.1c-37.7,0-69-28-69-65.8
		c0-39.4,28.4-72.1,69.3-72.1c28.4,0,39,17.2,62.4,26.4c2.7,1.1,5.8,1.1,8.5,0.5c-2.7,4-4.8,6.1-4.8,10.3v88c0,3.4,1.1,5.5,5.3,8.5
		H200z"/>
	<path fill="#913B33" d="M236.5,234.9c9.2,0,16.7,7.4,16.7,16.6v100.9c0,4.2,0.5,8.5,5.6,11.9h-37.7c5-3.4,5.6-7.7,5.6-11.9V247
		c0-4.5-0.5-8.7-5.6-12.2H236.5z M263.2,205.4l-15,21.4H222l3.6-5c7.4-10.3,19.4-16.4,32.1-16.4H263.2z"/>
	<path fill="#913B33" d="M266.1,364.3l79.1-105.1h-0.5h-48c-6.1,0-11.7,2.6-13.8,6.6v-10.8c0-11.1,9-20.1,20.2-20.1h91.6L314.1,340
		h64.2c6.1,0,11.7-2.4,13.8-6.3c-0.5-0.4,7.9,20.1,28.6,30.6C420.4,364.6,266.1,364.3,266.1,364.3"/>
	<path fill="#913B33" d="M506.9,287.2c-4.2-19.3-22-32.2-42.2-32.2c-22.3,0-38.2,11.9-44.8,32.2H506.9z M506.9,367.7
		c-3.2-2.6-3.4-4.2-7.4-4.2c-6.9,0-22,5-34.5,5c-38.7,0-71.9-29.8-71.9-66.8c0-39.6,31.8-71,70.6-71c44.8,0,72.7,35.9,72.7,75.5
		c0,1.8,0.5,3.4,1.3,5.3H419.6c6.6,23,25.5,32.8,49.4,32.8c13.8,0,27.9-4.2,37.9-13.5V367.7z"/>
	<path fill="#913B33" d="M533.6,367.2l-14.7,0v-37.2c0,0,9.9,9.7,21.4,11.9c11.3,2.2,21,3.9,36.5,3.3c14.8-0.1,30.1-7.3,30.1-18.5
		c0-26.7-55.4-21.7-55.4-63.4c0-25.1,18.8-36.1,41.6-36.1c5.9,0,11,0.8,14.8,1.6c4,0.8,6.7,2.1,8.3,2.1c3.5,0,6.7-2.1,8.6-5.1v38.5
		c-8.1-8.6-15.3-12.6-27.4-12.6c-8.1,0-16.9,2.9-16.9,12c0,23,55.4,19,55.4,60.7c0,2.3-0.2,4.6-0.6,6.8
		c-3.4,19.9-21.6,35.4-41.6,35.9L533.6,367.2z"/>
</g>
<g>
	<path fill="#FFFFFF" d="M16.7,420l-3.1,7.1H8L21.7,396h5.6L41,427.1h-5.6l-3.1-7.1H16.7z M30.1,415.2l-5.6-12.8l-5.6,12.8H30.1z"/>
	<path fill="#FFFFFF" d="M48.8,427.1V396H54v26.1h14.2v5H48.8z"/>
	<path fill="#FFFFFF" d="M86.4,400.8v26.3h-5.2v-26.3h-9.4V396h24.1v4.8H86.4z"/>
	<path fill="#FFFFFF" d="M130.6,422.8c-3.1,3.1-7,4.6-11.6,4.6c-4.6,0-8.5-1.5-11.6-4.6c-3.1-3.1-4.7-6.9-4.7-11.5
		c0-4.6,1.6-8.4,4.7-11.5c3.1-3.1,7-4.6,11.6-4.6c4.6,0,8.5,1.5,11.6,4.6c3.1,3.1,4.7,6.9,4.7,11.5
		C135.3,415.9,133.7,419.7,130.6,422.8z M126.7,403.3c-2.1-2.2-4.7-3.3-7.8-3.3c-3.1,0-5.7,1.1-7.8,3.3c-2.1,2.2-3.2,4.9-3.2,8
		s1.1,5.8,3.2,8c2.1,2.2,4.7,3.3,7.8,3.3c3.1,0,5.7-1.1,7.8-3.3c2.1-2.2,3.2-4.9,3.2-8S128.9,405.5,126.7,403.3z"/>
</g>
<g>
	<path fill="#FFFFFF" d="M199,400.9v8.5h13.8v4.8H199v12.8h-5.2V396h20.7l0,4.9H199z"/>
	<path fill="#FFFFFF" d="M248.9,406.1c0,5.1-2.2,8.4-6.7,9.7l8.1,11.3h-6.7l-7.4-10.4h-6.9v10.4h-5.2V396h11.6
		c4.7,0,8.1,0.8,10.2,2.4C247.9,400,248.9,402.6,248.9,406.1z M241.9,410.5c1.1-0.9,1.6-2.4,1.6-4.4c0-2-0.5-3.4-1.6-4.2
		c-1.1-0.8-3.1-1.1-5.9-1.1h-6.7v11.1h6.5C238.9,411.9,240.9,411.4,241.9,410.5z"/>
	<path fill="#FFFFFF" d="M281.9,396v4.9h-16.6v8.2h14.9v4.7h-14.9v8.3h17.1v4.9H260V396H281.9z"/>
	<path fill="#FFFFFF" d="M314,412h5.2v10.6c-2.9,3.2-7.1,4.8-12.6,4.8c-4.6,0-8.4-1.5-11.5-4.5c-3.1-3-4.6-6.8-4.6-11.5
		c0-4.6,1.6-8.5,4.7-11.6s7-4.6,11.4-4.6c4.5,0,8.2,1.3,11.2,3.9l-2.8,4c-1.2-1-2.4-1.8-3.7-2.2c-1.2-0.4-2.7-0.6-4.3-0.6
		c-3.1,0-5.8,1-7.9,3c-2.1,2-3.2,4.7-3.2,8c0,3.3,1,6,3.1,8c2.1,2,4.6,3,7.5,3c2.9,0,5.4-0.6,7.4-1.9V412z"/>
	<path fill="#FFFFFF" d="M336.6,420c1.4,1.7,3.3,2.5,5.8,2.5s4.4-0.8,5.8-2.5c1.4-1.7,2.1-3.9,2.1-6.8V396h5.2v17.4
		c0,4.5-1.2,7.9-3.7,10.3s-5.6,3.6-9.5,3.6s-7-1.2-9.5-3.6s-3.7-5.9-3.7-10.3V396h5.2v17.2C334.5,416,335.2,418.3,336.6,420z"/>
	<path fill="#FFFFFF" d="M389.2,396v4.9h-16.6v8.2h14.9v4.7h-14.9v8.3h17.1v4.9h-22.4V396H389.2z"/>
	<path fill="#FFFFFF" d="M409.4,400.1c-1.5,0-2.8,0.3-3.8,0.9c-1,0.6-1.5,1.6-1.5,2.8s0.5,2.2,1.5,2.9c1,0.7,3.1,1.4,6.2,2.2
		c3.2,0.8,5.6,1.9,7.2,3.2c1.6,1.4,2.4,3.4,2.4,6.2c0,2.7-1,4.9-3.1,6.6c-2,1.7-4.7,2.5-8,2.5c-4.9,0-9.2-1.7-12.9-5l3.3-4
		c3.1,2.7,6.4,4.1,9.8,4.1c1.7,0,3-0.4,4-1.1c1-0.7,1.5-1.7,1.5-2.9s-0.5-2.1-1.4-2.8s-2.5-1.3-4.8-1.8c-2.3-0.5-4-1.1-5.2-1.5
		c-1.2-0.5-2.2-1.1-3.2-1.8c-1.8-1.4-2.8-3.5-2.8-6.4c0-2.9,1-5.1,3.1-6.6c2.1-1.6,4.7-2.3,7.8-2.3c2,0,4,0.3,5.9,1
		c2,0.7,3.6,1.6,5.1,2.8l-2.8,4c-0.9-0.8-2.2-1.5-3.7-2C412.5,400.4,410.9,400.1,409.4,400.1z"/>
	<path fill="#FFFFFF" d="M431.5,396h5.2v31.1h-5.2V396z"/>
	<path fill="#FFFFFF" d="M453.4,420l-3.1,7.1h-5.6l13.7-31.1h5.6l13.7,31.1H472l-3.1-7.1H453.4z M466.8,415.2l-5.6-12.8l-5.6,12.8
		H466.8z"/>
	<path fill="#FFFFFF" d="M524.7,400.1c3,2.7,4.5,6.5,4.5,11.3c0,4.8-1.5,8.7-4.4,11.5c-2.9,2.8-7.4,4.2-13.3,4.2h-10.3V396h10.7
		C517.4,396,521.7,397.4,524.7,400.1z M523.9,411.5c0-7.1-4.1-10.7-12.2-10.7h-5.2v21.3h5.8c3.8,0,6.6-0.9,8.6-2.7
		C522.9,417.7,523.9,415,523.9,411.5z"/>
	<path fill="#FFFFFF" d="M565.5,422.8c-3.1,3.1-7,4.6-11.6,4.6s-8.5-1.5-11.6-4.6s-4.7-6.9-4.7-11.5c0-4.6,1.6-8.4,4.7-11.5
		s7-4.6,11.6-4.6s8.5,1.5,11.6,4.6c3.1,3.1,4.7,6.9,4.7,11.5C570.2,415.9,568.7,419.7,565.5,422.8z M561.7,403.3
		c-2.1-2.2-4.7-3.3-7.8-3.3c-3.1,0-5.7,1.1-7.8,3.3c-2.1,2.2-3.2,4.9-3.2,8s1.1,5.8,3.2,8c2.1,2.2,4.7,3.3,7.8,3.3
		c3.1,0,5.7-1.1,7.8-3.3s3.2-4.9,3.2-8S563.8,405.5,561.7,403.3z"/>
	<path fill="#FFFFFF" d="M622.1,422.8c-3.1,3.1-7,4.6-11.6,4.6s-8.5-1.5-11.6-4.6s-4.7-6.9-4.7-11.5c0-4.6,1.6-8.4,4.7-11.5
		s7-4.6,11.6-4.6s8.5,1.5,11.6,4.6c3.1,3.1,4.7,6.9,4.7,11.5C626.8,415.9,625.3,419.7,622.1,422.8z M618.3,403.3
		c-2.1-2.2-4.7-3.3-7.8-3.3c-3.1,0-5.7,1.1-7.8,3.3c-2.1,2.2-3.2,4.9-3.2,8s1.1,5.8,3.2,8c2.1,2.2,4.7,3.3,7.8,3.3
		c3.1,0,5.7-1.1,7.8-3.3s3.2-4.9,3.2-8S620.4,405.5,618.3,403.3z M611.3,393.4h-4.5l4.7-6.4l5.2,2.2L611.3,393.4z"/>
</g>
<rect x="158" y="390" fill="#913B33" width="5.6" height="44.6"/>
</svg>
